# xmcd CD database file
#
# Track frame offsets:
#	150
#	24890
#	49667
#	70467
#	91365
#	124012
#	148650
#	172140
#	181952
#	201017
#	216775
#	248247
#	275200
#
# Disc length: 3813 seconds
#
# Revision: 0
# Processed by: cddbd v1.4PL0 Copyright (c) Steve Scherf et al.
# Submitted via: CDex 1.51
#
DISCID=c50ee30d
DTITLE=Jazz and Tzaz - 122 - Euro Jazz 2003
DYEAR=2003
DGENRE=Jazz
TTITLE0=Antii Herman Quartet - Yes or No
TTITLE1=Arne Forchhammer Trio - Big Bang
TTITLE2=Erik Vermeulen Trio - Strange Comfort
TTITLE3=Greek Warriors - Amanda
TTITLE4=Largo - Three Steps to Miles
TTITLE5=Manfred Leuchter and Friends - Arabesque
TTITLE6=Marco Zurzolo and Banda M.V.M. - Tammuriata di Dona Francesca
TTITLE7=Sax4You - The Pink Panther
TTITLE8=Yuri Honing Trio - Fritz
TTITLE9=Minas Alexiadis - Storing a Story
TTITLE10=Fredrik Nordstrom Quintet - First Delivery
TTITLE11=Guilfoyle - Nielsen Trio - N.O. Thanks
TTITLE12=La Campagnie des Musiques a Quir - Sous le ciel de Paris
EXTD=YEAR: 2003
EXTT0=
EXTT1=
EXTT2=
EXTT3=
EXTT4=
EXTT5=
EXTT6=
EXTT7=
EXTT8=
EXTT9=
EXTT10=
EXTT11=
EXTT12=
PLAYORDER=
